<?xml version="1.0" standalone="no"?>
<!DOCTYPE svg PUBLIC "-//W3C//DTD SVG 20010904//EN"
 "http://www.w3.org/TR/2001/REC-SVG-20010904/DTD/svg10.dtd">
<svg version="1.0" xmlns="http://www.w3.org/2000/svg"
 width="1248.000000pt" height="1248.000000pt" viewBox="0 0 1248.000000 1248.000000"
 preserveAspectRatio="xMidYMid meet">

<g transform="translate(0.000000,1248.000000) scale(0.100000,-0.100000)"
fill="#000000" stroke="none">
<path d="M6450 11151 c0 -5 16 -18 35 -30 l35 -20 0 -102 c0 -93 -1 -100 -17
-93 -10 4 -52 9 -93 11 -69 4 -79 1 -127 -26 -70 -42 -103 -108 -110 -223 -9
-141 45 -241 139 -259 60 -11 112 5 163 52 23 21 45 39 49 39 3 0 6 -22 6 -48
l0 -48 68 3 c73 3 80 12 36 48 l-24 20 -3 340 -2 340 -77 3 c-44 2 -78 -1 -78
-7z m35 -304 l38 -33 0 -120 c0 -130 -10 -165 -58 -202 -63 -50 -138 -32 -174
40 -28 60 -30 203 -2 264 41 90 125 112 196 51z"/>
<path d="M4884 11056 c-3 -9 -3 -32 0 -51 6 -33 9 -35 45 -35 38 0 39 1 43 43
3 23 4 44 2 45 -1 2 -21 6 -43 9 -32 4 -42 2 -47 -11z"/>
<path d="M7525 11042 c-66 -31 -121 -100 -146 -184 -29 -93 -32 -273 -6 -358
41 -136 110 -194 232 -194 170 0 258 112 272 344 7 117 -7 195 -49 280 -46 92
-94 124 -191 128 -54 2 -82 -2 -112 -16z m161 -53 c21 -13 43 -41 61 -77 25
-52 27 -69 31 -203 7 -257 -42 -359 -172 -359 -130 0 -199 271 -134 527 7 30
25 61 53 89 36 39 47 44 85 44 26 0 56 -8 76 -21z"/>
<path d="M4200 10970 c-267 -37 -300 -42 -300 -51 0 -5 12 -15 28 -22 15 -6
30 -16 34 -22 11 -15 9 -629 -2 -705 -5 -35 -7 -67 -4 -69 3 -3 15 1 28 9 12
8 50 33 84 55 34 22 62 45 62 50 0 6 -14 22 -32 37 -32 26 -33 29 -37 113 -5
137 -2 144 78 188 38 20 74 37 79 37 6 0 12 -14 14 -31 4 -38 33 -62 48 -39 5
8 10 56 10 107 0 99 -12 124 -39 83 -25 -37 -89 -98 -133 -127 -33 -22 -41
-24 -49 -12 -10 16 -12 224 -3 281 6 34 11 39 53 52 71 23 129 30 145 17 7 -6
16 -25 20 -42 5 -27 9 -30 38 -27 l33 3 1 68 c1 56 -1 67 -15 66 -9 -1 -72 -9
-141 -19z"/>
<path d="M8067 10911 c-14 -17 -30 -53 -37 -81 -8 -34 -20 -56 -36 -67 -31
-20 -30 -40 1 -55 l25 -11 0 -198 0 -198 -31 -36 c-22 -24 -27 -36 -17 -39 21
-6 154 -26 177 -26 31 0 25 20 -9 31 l-30 11 0 199 c0 109 2 199 4 199 2 0 24
-12 50 -26 l46 -26 0 30 c0 24 -10 39 -50 72 l-50 42 0 73 c0 67 2 74 22 81
18 5 29 -2 60 -37 45 -52 47 -48 11 21 -39 76 -93 92 -136 41z"/>
<path d="M5590 10912 c0 -5 10 -16 22 -24 20 -13 23 -27 28 -99 3 -46 3 -137
0 -201 -4 -103 -8 -119 -27 -140 -13 -14 -23 -27 -23 -31 0 -4 45 -7 101 -7
l101 0 -31 35 -31 36 0 146 0 145 38 38 c46 46 100 60 137 36 37 -24 47 -81
43 -239 -3 -138 -3 -139 -30 -159 -16 -11 -28 -24 -28 -29 0 -5 45 -9 100 -9
107 0 117 6 75 43 -25 22 -25 24 -28 192 -2 133 -6 177 -19 200 -26 49 -54 68
-109 73 -47 4 -55 2 -111 -38 -33 -23 -62 -39 -65 -36 -3 3 -6 20 -7 38 l-1
33 -67 3 c-38 2 -68 -1 -68 -6z"/>
<path d="M6845 10898 c-44 -26 -64 -60 -72 -118 -5 -33 -1 -41 32 -75 21 -20
67 -50 104 -67 85 -38 121 -72 121 -113 0 -32 -16 -53 -58 -75 -18 -9 -35 -9
-73 0 -41 10 -54 19 -75 51 -27 43 -49 50 -59 19 -7 -21 3 -88 14 -94 23 -15
166 -25 212 -15 93 20 148 105 116 181 -20 46 -50 71 -138 112 -80 38 -102 56
-114 94 -10 34 42 82 90 82 44 0 71 -13 108 -52 40 -43 63 -34 59 22 -2 25 -8
49 -13 55 -5 5 -56 11 -112 13 -92 3 -106 1 -142 -20z"/>
<path d="M5230 10894 c-91 -39 -140 -132 -140 -263 0 -121 41 -194 125 -227
52 -20 144 -15 191 9 42 22 84 66 84 90 0 19 -1 19 -27 1 -93 -61 -171 -71
-221 -29 -32 26 -62 99 -62 147 l0 28 88 0 c49 0 124 3 166 7 l77 6 -6 51 c-8
59 -28 112 -53 140 -45 51 -152 70 -222 40z m125 -44 c38 -24 58 -64 53 -111
-3 -32 -5 -34 -53 -42 -27 -4 -78 -5 -112 -1 -53 5 -63 9 -63 24 0 42 45 116
83 137 31 18 55 16 92 -7z"/>
<path d="M4822 10858 c3 -7 15 -15 29 -18 l24 -6 3 -204 2 -205 -32 -27 c-37
-31 -43 -29 84 -29 45 -1 84 3 86 9 1 5 -9 17 -23 26 l-25 16 0 225 0 225 -76
0 c-55 0 -75 -3 -72 -12z"/>
<path d="M4460 10841 l-55 -6 33 -29 32 -29 0 -202 0 -202 -25 -23 c-29 -27
-33 -50 -8 -50 9 0 56 5 105 11 69 9 86 14 78 24 -6 7 -22 16 -35 19 -25 6
-25 7 -27 134 -1 70 0 145 1 167 3 46 44 105 84 119 22 8 31 4 62 -22 63 -56
93 -36 79 53 -6 40 -9 45 -33 45 -57 -1 -113 -18 -127 -39 -37 -53 -86 -50
-77 5 6 38 14 36 -87 25z"/>
<path d="M5815 10084 c-27 -2 -114 -8 -193 -14 -315 -23 -668 -83 -962 -164
-480 -133 -909 -343 -1197 -588 -491 -416 -807 -1117 -914 -2023 -19 -165 -20
-252 -26 -2870 l-6 -2700 3558 3 c1957 1 3559 3 3559 5 1 1 -1 1222 -4 2712
-5 2514 -7 2720 -23 2845 -23 173 -64 419 -82 490 -8 30 -26 102 -40 160 -40
160 -59 222 -120 380 -61 157 -177 393 -253 515 -116 185 -333 427 -484 540
-208 154 -453 287 -733 398 -380 151 -846 255 -1335 297 -120 11 -659 21 -745
14z m760 -39 c281 -25 405 -43 650 -97 389 -84 626 -165 935 -320 275 -137
487 -284 640 -444 236 -247 392 -498 534 -856 60 -153 80 -215 131 -413 48
-186 86 -382 111 -575 19 -150 31 -583 15 -560 -6 8 -11 23 -11 32 0 40 -27
21 -57 -41 -33 -69 -58 -96 -200 -214 -123 -104 -187 -184 -199 -252 -9 -53
-31 -95 -49 -95 -13 0 -15 31 -15 203 0 111 4 219 9 240 9 39 30 63 91 102
123 80 257 224 312 335 29 57 33 75 33 146 0 69 -3 85 -25 116 -13 20 -28 34
-32 32 -5 -3 -34 -44 -65 -92 -32 -48 -95 -139 -142 -202 -94 -129 -157 -249
-166 -319 -4 -25 -15 -72 -26 -104 -17 -50 -19 -87 -19 -297 0 -202 -2 -240
-14 -240 -19 0 -48 42 -69 101 -26 69 -85 142 -211 261 -87 82 -120 121 -146
172 -28 54 -36 63 -48 53 -11 -9 -13 -35 -10 -127 4 -103 7 -121 34 -175 37
-75 93 -119 225 -175 141 -60 180 -87 212 -149 l27 -53 0 -225 c0 -207 -1
-224 -17 -221 -10 2 -35 32 -56 68 -63 104 -80 123 -204 223 -139 112 -177
150 -197 198 -8 19 -21 41 -29 48 -29 24 -49 -140 -26 -210 29 -87 97 -139
279 -213 127 -52 198 -103 230 -167 17 -32 20 -59 20 -169 0 -103 3 -130 14
-130 9 0 15 19 19 61 10 109 60 158 244 238 149 65 183 84 219 123 47 50 64
79 65 113 1 21 4 15 9 -20 5 -27 9 -166 9 -307 1 -236 0 -257 -16 -261 -10 -3
-271 -5 -580 -6 -395 -1 -563 1 -568 9 -4 6 -7 406 -6 888 0 718 -2 902 -15
1015 -16 146 -42 303 -69 408 -54 216 -191 525 -314 711 -382 578 -1062 888
-1941 888 -302 0 -607 -35 -839 -96 -289 -77 -583 -225 -789 -398 -362 -302
-581 -690 -702 -1238 -12 -55 -26 -148 -40 -263 -6 -48 -10 -451 -10 -997 0
-820 -2 -917 -16 -922 -9 -3 -134 -6 -279 -6 -200 0 -266 3 -272 13 -9 14 -11
396 -3 474 5 42 13 60 41 89 50 52 105 88 184 118 248 95 316 157 317 291 0
89 -12 167 -25 162 -6 -2 -24 -26 -40 -53 -37 -63 -83 -111 -182 -189 -109
-86 -201 -184 -227 -241 -11 -27 -30 -56 -42 -65 -20 -16 -21 -16 -28 1 -11
30 -8 390 3 448 15 73 65 122 178 174 215 98 263 133 297 213 17 42 29 196 20
269 -6 48 -10 55 -22 45 -8 -6 -14 -19 -14 -28 0 -32 -69 -118 -170 -211 -111
-102 -173 -182 -215 -275 -30 -67 -52 -95 -72 -95 -10 0 -13 31 -13 152 0 117
-4 169 -19 227 -11 42 -22 92 -26 112 -10 63 -99 229 -180 339 -43 58 -103
142 -132 187 -30 45 -58 85 -62 88 -14 8 -48 -28 -60 -64 -50 -152 67 -356
308 -542 46 -35 89 -68 96 -74 6 -5 20 -26 31 -45 17 -32 19 -63 22 -332 3
-205 0 -298 -7 -298 -15 0 -38 39 -60 102 -11 31 -35 80 -54 110 -36 56 -63
82 -223 215 -63 53 -132 140 -145 185 -11 40 -26 65 -34 57 -3 -3 -10 -54 -15
-112 -10 -105 -10 -108 16 -159 46 -91 142 -172 391 -331 52 -33 79 -58 100
-94 27 -47 28 -52 31 -221 2 -95 1 -180 -2 -189 -10 -25 -47 15 -91 100 -52
98 -75 126 -191 222 -125 104 -180 164 -205 221 -33 73 -49 54 -54 -67 -3 -44
2 -101 10 -138 9 -38 12 -69 6 -79 -5 -9 -12 -39 -17 -67 -8 -47 -8 -44 -14
55 -4 58 -6 371 -5 695 2 475 6 616 19 725 84 690 287 1257 599 1668 172 225
286 333 517 487 489 325 1116 518 1930 593 165 16 767 14 955 -3z m-74 -989
c306 -38 619 -130 836 -246 241 -129 470 -326 634 -545 229 -306 394 -767 429
-1196 7 -92 10 -938 8 -2724 l-3 -2590 -540 -3 c-559 -3 -825 3 -825 20 0 5 4
7 9 3 16 -10 80 61 106 117 36 78 65 199 71 298 6 88 -10 279 -46 540 -61 446
-81 813 -61 1122 13 203 23 264 55 310 41 60 107 36 161 -57 30 -51 63 -158
115 -370 108 -442 168 -637 323 -1050 297 -788 299 -792 362 -841 40 -30 111
-42 144 -24 63 33 77 130 40 293 -17 77 -144 468 -209 642 -306 821 -338 924
-474 1535 -85 385 -119 627 -137 995 -15 313 1 551 42 644 78 178 189 92 302
-235 48 -138 126 -457 188 -769 28 -143 58 -273 66 -290 39 -77 90 -96 136
-49 77 77 75 236 -9 618 -68 308 -195 639 -337 876 -133 222 -270 394 -459
577 -236 228 -300 296 -360 379 -73 103 -159 269 -248 479 -193 459 -276 623
-418 830 -95 138 -229 279 -276 291 -67 16 -127 -21 -142 -89 -10 -48 -38 -98
-74 -132 -51 -48 -350 -391 -430 -494 -147 -190 -300 -435 -315 -507 -6 -29
-1 -36 62 -92 37 -33 94 -80 125 -104 32 -24 61 -53 64 -66 4 -12 -7 -71 -25
-135 -55 -200 -88 -390 -82 -477 2 -25 4 -46 6 -48 3 -4 66 36 314 200 106 70
197 128 201 128 5 0 53 -33 107 -73 194 -145 390 -270 406 -260 11 6 8 65 -8
188 -8 61 -26 200 -41 310 l-25 200 65 141 c84 183 111 270 92 290 -8 8 -19
14 -25 14 -23 0 -165 166 -251 294 -100 150 -145 276 -157 445 -7 102 2 101
53 -1 43 -84 145 -251 222 -363 277 -400 338 -519 397 -780 57 -255 98 -407
154 -585 77 -242 91 -317 98 -535 8 -266 -10 -570 -68 -1140 -52 -514 -59
-622 -59 -905 -1 -366 16 -554 85 -985 45 -279 54 -409 62 -865 5 -369 6 -386
26 -407 11 -13 26 -23 34 -23 26 0 12 -18 -19 -24 -39 -8 -3203 -7 -3223 0
-12 5 -14 210 -15 1357 0 744 3 1451 6 1571 l7 219 21 -25 c27 -32 88 -68 115
-68 38 0 78 28 96 66 14 30 16 51 11 108 -4 39 -10 81 -13 93 -3 16 0 25 12
29 31 12 43 -21 114 -296 122 -476 142 -652 123 -1087 -17 -403 -37 -533 -157
-1038 -60 -253 -78 -322 -155 -615 -35 -133 -37 -170 -11 -226 21 -46 55 -61
109 -49 119 26 200 288 317 1029 26 169 53 264 80 286 38 31 129 -101 184
-265 36 -108 101 -358 130 -505 52 -253 90 -360 160 -448 45 -57 108 -92 164
-92 35 0 77 34 77 62 0 27 10 22 51 -23 47 -52 96 -61 156 -30 47 23 73 57
107 133 38 87 56 181 122 633 79 555 128 731 219 801 45 34 67 30 119 -22 99
-98 169 -257 346 -779 125 -370 156 -452 212 -555 48 -90 96 -151 141 -179 69
-42 160 -36 207 14 43 46 21 110 -126 374 -169 300 -321 630 -408 880 -150
433 -212 742 -236 1181 -22 399 14 608 177 1035 38 98 144 324 198 421 l34 60
43 -6 c132 -19 263 117 318 330 28 107 24 215 -9 260 -11 16 -21 37 -21 47 -1
46 -58 83 -127 83 -118 -1 -223 -94 -294 -261 -47 -109 -62 -209 -46 -289 13
-60 13 -66 -4 -78 -25 -17 -164 -296 -255 -510 -42 -97 -97 -208 -122 -246
-92 -135 -212 -186 -319 -135 -94 45 -220 199 -323 396 l-43 82 12 86 c13 84
11 113 -11 168 -14 36 -35 34 -72 -8 l-31 -36 -37 47 c-49 61 -134 151 -181
192 -64 55 -139 34 -139 -40 0 -90 22 -136 143 -310 49 -69 89 -133 89 -140 0
-8 -12 -43 -26 -79 -48 -121 -126 -334 -181 -493 -61 -177 -106 -269 -173
-350 -51 -62 -91 -86 -146 -86 -32 0 -45 7 -85 49 -67 70 -99 163 -174 505
-35 160 -73 327 -84 370 -12 44 -21 94 -21 111 0 17 37 121 81 231 45 109 92
224 104 254 12 30 57 134 100 230 163 370 209 498 209 596 1 59 -3 76 -24 107
-69 100 -167 84 -228 -38 -11 -22 -43 -112 -71 -200 -67 -209 -65 -203 -100
-330 -17 -60 -35 -123 -40 -140 -6 -16 -30 -109 -55 -205 -69 -271 -61 -254
-124 -262 -36 -4 -62 -14 -79 -30 -24 -22 -25 -26 -21 -133 3 -82 9 -120 23
-149 10 -22 18 -53 18 -71 -2 -57 -62 -230 -101 -291 -68 -105 -70 -104 -75
43 -5 173 2 1897 8 1999 18 302 137 707 288 975 167 300 450 581 747 743 277
151 633 244 1065 280 105 8 525 -3 646 -18z m-351 -471 c110 -81 304 -349 424
-585 67 -131 81 -164 191 -425 96 -229 204 -446 276 -553 48 -72 122 -153 318
-350 271 -271 370 -391 498 -599 159 -259 279 -584 353 -953 49 -243 60 -390
36 -455 -17 -44 -47 -75 -74 -75 -26 0 -60 109 -106 340 -99 497 -155 712
-231 890 -85 198 -182 280 -259 219 -106 -83 -136 -346 -101 -876 25 -364 53
-535 185 -1108 97 -420 153 -600 343 -1100 234 -616 307 -853 307 -996 0 -61
-3 -73 -25 -94 -46 -47 -124 -23 -173 51 -27 42 -51 101 -174 424 -213 565
-237 630 -287 784 -74 228 -91 291 -177 641 -38 157 -82 302 -104 344 -41 79
-119 138 -165 127 -38 -10 -82 -69 -95 -128 -20 -93 -31 -394 -25 -658 6 -245
22 -434 65 -750 56 -420 60 -535 19 -680 -23 -83 -50 -140 -91 -192 -33 -42
-46 -46 -77 -20 -21 17 -22 25 -25 322 -2 168 -9 391 -16 495 -11 180 -20 256
-55 475 -107 660 -108 1014 -5 2025 36 354 44 509 44 825 0 378 -5 412 -105
739 -71 230 -106 362 -140 536 -45 224 -130 404 -316 670 -158 225 -254 378
-328 523 -53 105 -56 114 -45 142 23 56 84 67 140 25z m-177 -258 c7 -102 34
-201 80 -292 56 -111 161 -257 261 -362 22 -24 36 -46 32 -50 -9 -10 -208 -41
-224 -35 -6 2 -42 53 -79 113 -37 60 -80 129 -95 152 -15 23 -33 56 -41 72
-29 62 -38 60 -94 -23 -28 -42 -90 -149 -138 -237 -48 -88 -94 -167 -102 -176
-8 -9 -28 -19 -46 -22 -261 -47 -337 -57 -337 -41 0 10 98 170 154 254 71 106
217 299 289 383 149 176 316 357 328 357 3 0 9 -42 12 -93z m-103 -474 c0 -20
9 -95 21 -166 11 -70 18 -135 15 -143 -3 -8 -18 -14 -33 -14 -15 0 -80 -9
-143 -20 -63 -11 -116 -20 -117 -20 -1 0 15 28 36 63 21 34 53 91 71 127 18
36 47 86 65 111 18 26 41 61 50 78 20 39 35 32 35 -16z m134 -141 c42 -68 76
-127 76 -131 0 -5 -28 -14 -61 -20 -69 -14 -79 -9 -79 41 0 15 -6 57 -14 95
-8 37 -17 91 -21 118 -6 44 -5 48 8 35 8 -8 49 -70 91 -138z m325 -149 c0 -7
-294 -254 -310 -261 -5 -2 -59 190 -59 209 0 3 24 9 53 13 28 3 95 15 147 25
101 20 171 26 169 14z m45 -30 c-10 -45 -30 -102 -72 -203 l-39 -95 -69 1
c-39 1 -86 9 -109 18 l-40 17 31 27 c17 15 80 67 140 116 60 49 119 102 132
118 29 35 34 35 26 1z m-417 -155 l25 -115 -53 -49 c-30 -27 -97 -90 -149
-141 l-95 -92 -85 70 c-47 38 -95 78 -107 88 -18 16 -21 24 -13 47 21 70 94
231 111 249 15 15 55 26 172 46 83 15 156 23 160 19 5 -4 20 -59 34 -122z
m-426 34 c-5 -15 -23 -61 -40 -102 -18 -41 -36 -85 -41 -98 -9 -22 -13 -20
-108 60 -64 53 -97 88 -95 98 3 12 35 21 126 35 67 10 129 22 137 26 25 14 29
10 21 -19z m554 -191 c28 -10 71 -21 98 -24 63 -8 67 -11 67 -62 0 -40 13
-149 55 -459 8 -60 13 -112 9 -115 -24 -24 -198 353 -258 563 -23 79 -31 116
-23 116 1 0 25 -8 52 -19z m-87 -38 c6 -16 23 -64 38 -108 35 -104 118 -313
145 -366 11 -23 36 -64 55 -90 38 -54 33 -59 -23 -27 -42 24 -396 288 -457
340 l-38 34 127 122 c71 67 131 122 135 122 4 0 12 -12 18 -27z m-438 -145
c49 -40 90 -78 90 -85 0 -6 -11 -20 -24 -30 -31 -25 -199 -215 -240 -272 l-31
-44 -3 42 c-2 23 4 77 13 119 24 119 87 342 97 342 4 0 48 -33 98 -72z m193
-151 l48 -42 -203 -135 c-258 -172 -271 -177 -166 -56 132 151 250 276 261
276 7 -1 34 -20 60 -43z m-1201 1 c41 -45 50 -73 42 -137 -10 -86 -60 -220
-194 -526 -128 -294 -253 -602 -343 -852 -99 -270 -100 -277 -93 -364 5 -67 4
-85 -13 -118 -32 -62 -59 -66 -125 -16 -50 39 -58 66 -25 88 66 47 108 160
229 612 292 1097 343 1259 418 1322 38 32 68 29 104 -9z m-966 -169 l-14 -34
-1 28 c-1 31 22 77 27 54 2 -8 -4 -30 -12 -48z m6020 -264 c-6 -184 -5 -177
-19 -172 -7 2 -12 9 -12 15 0 26 -21 15 -40 -21 -11 -21 -63 -77 -115 -125
-198 -182 -239 -227 -271 -299 -33 -74 -54 -103 -76 -103 -18 0 -17 358 1 410
10 29 35 50 151 128 213 141 310 227 345 303 22 47 25 49 33 27 4 -13 6 -86 3
-163z m-2875 -218 c-10 -9 -11 -8 -5 6 3 10 9 15 12 12 3 -3 0 -11 -7 -18z
m2879 -204 c0 -54 -8 -73 -31 -73 -10 0 -31 -19 -48 -42 -37 -54 -167 -180
-244 -238 -69 -51 -115 -105 -150 -176 -27 -54 -52 -84 -68 -84 -5 0 -9 58 -9
135 l0 134 31 35 c42 48 107 94 214 151 145 77 202 114 229 148 14 18 34 42
43 54 22 28 33 14 33 -44z m-6236 -67 c-10 -8 -21 -12 -24 -10 -5 6 21 24 34
24 6 0 1 -6 -10 -14z m5409 -167 c15 -13 15 -18 4 -27 -29 -25 -220 126 -196
154 8 10 28 -1 92 -49 45 -34 90 -69 100 -78z m-6108 67 c11 -7 47 -28 80 -46
33 -18 80 -44 105 -58 25 -14 62 -34 83 -46 53 -28 114 -82 148 -129 27 -38
29 -45 29 -144 0 -56 -4 -103 -8 -103 -14 0 -59 53 -77 90 -34 69 -99 142
-194 217 -129 103 -211 185 -211 212 0 24 17 27 45 7z m-38 -282 c39 -34 118
-76 256 -136 109 -47 166 -92 200 -158 15 -30 26 -66 25 -80 l-3 -25 -282 -3
-283 -2 0 259 c0 143 3 268 7 277 5 14 11 3 24 -39 13 -43 28 -68 56 -93z
m6793 100 c-8 -8 -23 -20 -34 -25 -13 -6 -10 0 9 15 34 29 43 33 25 10z
m-6658 -49 c3 3 19 -8 36 -25 18 -16 36 -30 41 -30 16 0 22 -18 10 -26 -7 -4
-9 -3 -6 3 4 6 -7 13 -27 17 -19 4 -48 21 -65 38 -33 34 -43 62 -13 35 10 -10
21 -15 24 -12z m2489 -283 c-6 -2 -8 -8 -5 -14 3 -5 7 -31 8 -58 1 -45 0 -48
-16 -34 -20 19 -32 82 -23 124 l7 31 20 -23 c11 -13 15 -24 9 -26z m-6 -254
c145 -326 212 -591 246 -965 16 -190 7 -595 -20 -798 -59 -456 -161 -925 -272
-1254 -27 -80 -49 -156 -49 -168 0 -38 -18 -26 -30 19 -7 23 -32 87 -57 142
-146 328 -256 654 -335 991 -22 96 -23 117 -23 485 0 362 1 391 23 493 30 142
81 310 147 482 93 244 290 725 296 725 3 0 37 -69 74 -152z m40 74 c-6 -6 -34
28 -35 42 0 5 9 -1 20 -14 11 -13 18 -26 15 -28z m-1580 -1716 c0 -1347 -3
-1697 -12 -1701 -7 -2 -269 -5 -583 -5 l-570 0 0 1699 0 1700 28 3 c15 2 277
2 582 2 l554 -1 1 -1697z m5881 1691 c2 -2 4 -766 4 -1698 l0 -1694 -557 -2
c-307 -2 -568 0 -580 2 l-23 5 0 1694 c0 931 2 1695 4 1697 6 5 1147 2 1152
-4z m-3609 -754 c-2 -37 -3 -9 -3 62 0 72 1 102 3 68 2 -34 2 -93 0 -130z
m-474 97 c3 -11 1 -20 -4 -20 -5 0 -9 9 -9 20 0 11 2 20 4 20 2 0 6 -9 9 -20z
m21 -115 c7 -83 -8 -58 -18 30 -4 37 -3 56 3 50 5 -6 11 -41 15 -80z m464
-152 c-1 -68 -2 -78 -7 -43 -6 45 -3 130 5 130 2 0 3 -39 2 -87z m9 -160 c-3
-10 -5 -4 -5 12 0 17 2 24 5 18 2 -7 2 -21 0 -30z m31 -193 l0 -35 -9 40 c-4
22 -8 51 -7 65 0 23 1 22 8 -5 4 -16 8 -46 8 -65z"/>
<path d="M6170 9943 c0 -5 14 -20 30 -35 22 -19 30 -35 30 -60 -2 -173 -21
-562 -30 -577 -5 -11 -19 -23 -31 -26 -11 -4 -18 -12 -16 -18 4 -12 207 -21
207 -8 0 4 -12 18 -26 32 l-26 24 6 260 c9 337 11 352 48 371 53 27 29 39 -85
42 -59 1 -107 -1 -107 -5z"/>
<path d="M5525 9919 c-115 -12 -115 -12 -74 -38 43 -25 40 -13 64 -316 21
-268 20 -332 -5 -347 -11 -7 -20 -19 -20 -27 0 -10 12 -12 55 -7 30 3 80 9
111 12 57 7 60 14 13 38 -29 14 -34 36 -43 167 l-7 106 32 7 c78 15 93 10 129
-46 19 -29 62 -97 98 -150 l64 -98 61 0 c84 0 99 11 57 41 -18 13 -64 68 -102
122 -39 54 -84 114 -100 133 l-30 34 46 41 c60 53 76 85 76 151 0 70 -34 135
-86 165 -34 20 -52 23 -149 22 -60 -1 -146 -5 -190 -10z m256 -50 c37 -14 61
-62 65 -133 5 -72 -15 -121 -61 -147 -34 -20 -156 -42 -167 -31 -9 9 -31 258
-26 293 3 22 9 25 63 30 63 6 84 4 126 -12z"/>
<path d="M6848 9883 c-9 -10 -68 -110 -133 -223 -197 -343 -209 -361 -252
-401 l-42 -38 37 -6 c20 -4 67 -12 103 -19 37 -6 71 -10 78 -8 6 2 -3 17 -20
35 -37 36 -36 60 5 150 26 56 28 58 59 52 18 -2 67 -9 110 -15 43 -5 86 -14
96 -20 20 -10 31 -57 31 -136 0 -45 -3 -52 -25 -62 -14 -7 -33 -12 -41 -12 -9
0 -14 -6 -12 -12 5 -14 81 -32 180 -43 49 -6 58 -5 58 9 0 9 -4 16 -10 16 -28
0 -42 60 -80 341 -22 162 -40 310 -40 329 0 20 -7 46 -16 58 -19 27 -64 29
-86 5z m36 -253 c23 -205 25 -194 -26 -186 -128 20 -168 29 -168 38 0 19 164
308 171 300 3 -4 14 -72 23 -152z"/>
<path d="M4905 9806 c-102 -32 -163 -92 -189 -185 -42 -151 12 -371 118 -476
78 -77 156 -93 277 -55 82 25 130 66 166 138 24 49 28 69 28 142 -1 47 -7 110
-14 140 -33 134 -113 253 -196 291 -47 22 -131 24 -190 5z m140 -67 c129 -89
215 -437 135 -549 -43 -61 -138 -87 -199 -55 -63 32 -133 157 -171 303 -44
167 -10 279 95 317 49 18 97 13 140 -16z"/>
<path d="M7660 9663 c0 -5 7 -16 14 -26 9 -12 11 -28 6 -51 -10 -47 -247 -507
-272 -528 -11 -10 -31 -18 -44 -18 -13 0 -24 -4 -24 -9 0 -12 195 -112 203
-105 9 10 -4 34 -19 34 -26 0 -15 48 36 156 57 121 47 116 160 68 154 -65 268
-26 326 111 23 55 18 105 -16 158 -35 55 -82 87 -238 162 -113 55 -132 62
-132 48z m185 -124 c24 -11 60 -39 80 -60 28 -32 35 -47 35 -82 0 -83 -84
-187 -151 -187 -39 0 -150 41 -156 57 -6 16 126 293 139 293 5 0 28 -9 53 -21z"/>
<path d="M4205 9524 c-270 -151 -298 -170 -286 -192 6 -10 17 -24 25 -31 9 -8
21 -31 26 -52 9 -31 15 -39 34 -39 31 0 37 17 25 71 -6 24 -8 53 -4 66 5 23
83 83 107 83 7 0 34 -40 60 -88 26 -48 60 -109 76 -137 173 -303 173 -302 146
-384 l-7 -25 39 24 c21 13 69 38 106 56 85 42 92 54 34 54 -42 0 -48 3 -70 38
-34 54 -273 484 -278 502 -7 22 59 59 104 60 27 0 46 -8 71 -30 42 -37 84 -45
79 -15 -2 11 -13 38 -24 60 -12 22 -26 50 -32 62 -6 13 -18 23 -26 23 -8 0
-100 -48 -205 -106z"/>
<path d="M3671 9159 c-171 -98 -229 -261 -151 -424 40 -83 167 -216 248 -259
68 -35 169 -38 232 -6 80 41 200 175 200 223 0 27 -80 107 -106 107 -18 0 -17
-12 1 -80 19 -70 8 -106 -45 -154 -69 -62 -140 -58 -249 15 -78 52 -183 166
-217 235 -78 160 23 310 172 254 28 -11 64 -5 64 11 0 5 -21 31 -47 59 l-48
50 -54 -31z"/>
<path d="M8420 9161 c-19 -10 -120 -64 -225 -121 -287 -155 -335 -178 -399
-193 l-59 -13 59 -46 c32 -25 70 -58 83 -72 14 -14 28 -26 32 -26 4 0 5 24 2
53 -6 59 3 72 89 120 l46 27 63 -53 c34 -28 78 -66 97 -83 l36 -31 -34 -67
c-47 -92 -61 -103 -110 -89 -36 9 -38 9 -29 -8 5 -10 30 -35 56 -56 102 -84
122 -106 168 -192 26 -50 55 -97 65 -106 18 -16 19 -15 30 24 8 32 20 47 53
68 23 14 66 41 94 60 29 18 59 33 68 33 8 0 27 -24 41 -52 l27 -52 -24 -46
c-13 -25 -47 -85 -75 -135 -28 -49 -54 -100 -58 -112 -5 -16 4 -45 33 -100 24
-48 48 -116 62 -175 12 -54 25 -98 29 -98 4 0 12 11 18 24 6 14 21 32 34 40
30 19 255 76 274 69 17 -6 18 -36 3 -66 -14 -27 -83 -108 -163 -195 -56 -60
-62 -63 -94 -57 -31 6 -34 4 -28 -12 4 -10 16 -53 26 -95 10 -43 21 -82 25
-89 4 -6 20 12 39 45 17 31 72 102 121 159 50 56 104 119 119 140 16 20 35 37
42 37 26 0 327 -155 367 -188 15 -14 17 -13 17 4 0 15 -33 130 -56 193 -3 11
-11 5 -25 -18 -19 -32 -23 -33 -66 -28 -65 7 -227 93 -258 137 -33 46 -24 53
96 86 138 39 135 38 175 13 l37 -22 -7 37 c-4 21 -16 67 -27 103 l-20 65 -32
-36 c-30 -34 -42 -38 -247 -91 -118 -31 -250 -64 -293 -73 l-79 -17 -25 29
c-39 46 -29 100 42 227 36 65 60 120 63 147 2 23 7 42 11 42 3 0 30 -9 59 -20
71 -27 127 -26 190 6 101 50 125 137 71 259 -27 61 -160 275 -171 275 -4 0 -8
-15 -8 -33 0 -42 -1 -43 -180 -152 -80 -48 -188 -114 -240 -146 -108 -68 -146
-75 -179 -34 -46 60 -41 79 106 400 89 195 143 325 143 345 0 19 -35 50 -55
50 -5 -1 -26 -9 -45 -19z m-68 -204 c-28 -62 -58 -129 -66 -151 l-16 -38 -37
27 c-53 39 -123 107 -123 120 0 5 39 32 88 59 48 27 112 64 142 82 30 18 57
28 58 23 2 -6 -19 -60 -46 -122z m616 -435 c40 -77 47 -113 28 -151 -47 -89
-207 -131 -262 -68 -44 49 -77 110 -68 125 14 21 247 160 260 155 7 -2 25 -30
42 -61z"/>
<path d="M3179 8598 c-12 -24 -31 -56 -44 -73 -12 -16 -27 -39 -33 -51 -11
-20 -10 -21 32 -11 47 11 28 20 243 -112 248 -153 309 -197 319 -231 5 -19 14
-35 19 -37 10 -3 119 166 112 173 -2 3 -15 0 -29 -6 -38 -18 -85 4 -313 148
-260 164 -256 161 -260 202 -4 49 -21 48 -46 -2z"/>
<path d="M2944 8175 c-17 -58 -29 -105 -26 -105 2 0 18 12 35 26 49 41 63 34
305 -157 70 -55 141 -111 157 -123 17 -13 27 -26 24 -30 -8 -8 -509 14 -535
24 -16 6 -24 19 -26 42 -6 60 -28 35 -64 -70 -19 -57 -34 -106 -32 -108 2 -2
17 4 33 12 26 14 72 15 383 9 268 -5 357 -4 368 5 28 24 16 54 -39 97 -327
259 -479 391 -513 444 -13 22 -28 39 -32 39 -4 0 -21 -47 -38 -105z"/>
<path d="M7293 7929 c-154 -77 -273 -327 -273 -575 0 -229 104 -380 244 -353
156 29 271 195 317 453 16 94 6 255 -20 325 -22 59 -61 112 -103 144 -39 29
-114 32 -165 6z m155 -38 c27 -20 50 -51 72 -95 29 -58 33 -77 37 -173 6 -138
-19 -270 -73 -379 -123 -249 -327 -289 -406 -80 -20 53 -23 78 -23 201 1 131
3 146 33 233 52 150 128 252 227 305 46 25 87 21 133 -12z"/>
<path d="M4840 6463 c-31 -11 -71 -58 -81 -97 -8 -31 -7 -48 6 -81 19 -51 41
-73 91 -90 50 -17 115 4 149 49 49 64 25 175 -44 211 -29 15 -91 19 -121 8z
m110 -38 c37 -19 50 -43 52 -95 1 -30 -5 -47 -23 -66 -55 -59 -108 -63 -159
-12 -94 93 12 234 130 173z"/>
<path d="M5649 5633 c-23 -21 -53 -62 -67 -93 -24 -50 -26 -66 -27 -185 0
-123 2 -133 27 -182 37 -69 69 -93 125 -93 49 0 78 12 106 44 75 84 98 274 51
415 -10 31 -34 71 -55 93 -30 32 -42 38 -77 38 -34 0 -50 -7 -83 -37z m51 -28
c-7 -9 -15 -13 -19 -10 -3 3 1 10 9 15 21 14 24 12 10 -5z m64 -4 c4 -5 -3 -7
-14 -4 -23 6 -26 13 -6 13 8 0 17 -4 20 -9z m83 -268 c-3 -10 -5 -4 -5 12 0
17 2 24 5 18 2 -7 2 -21 0 -30z"/>
<path d="M4497 5039 c-56 -49 -101 -136 -122 -239 -35 -165 23 -314 130 -334
59 -11 107 28 156 130 53 109 66 181 51 280 -30 194 -111 255 -215 163z"/>
</g>
</svg>
